<svg xmlns="http://www.w3.org/2000/svg" viewBox="0 0 183.97 28.11" class="w-auto h-8"><defs><style>.cls-1{fill:#fdc408;}.cls-2{fill:#fff;}</style></defs><title>SEOnergy Logo</title><g id="Capa_2" data-name="Capa 2"><g id="Capa_2-2" data-name="Capa 2"><polygon class="cls-1" points="14.05 5.07 17.28 8.29 11.52 14.05 14.05 16.59 22.88 7.76 22.88 7.76 25.57 5.07 31.33 10.83 33.87 8.3 25.57 0 19.81 5.76 14.05 0 0 14.05 2.54 16.59 5.07 14.05 5.07 14.05 14.05 5.07"></polygon><polygon class="cls-1" points="5.07 19.81 11.52 14.05 14.05 16.59 5.07 25.57 5.07 19.81"></polygon><polygon class="cls-2" points="19.81 22.35 14.05 28.11 14.05 22.35 14.05 16.59 19.81 22.35"></polygon><path class="cls-2" d="M49.58,20.73a4.3,4.3,0,0,1-1.68-.85A4.11,4.11,0,0,1,46.73,18a6.54,6.54,0,0,1-.43-2.49,6.41,6.41,0,0,1,.43-2.48A4,4,0,0,1,47.9,11.2a4.41,4.41,0,0,1,1.68-.84,6.7,6.7,0,0,1,2-.3,5.4,5.4,0,0,1,2.54.56,4.1,4.1,0,0,1,1.66,1.55l-1.8,1a2.47,2.47,0,0,0-.94-.88,2.72,2.72,0,0,0-1.33-.32,2.91,2.91,0,0,0-2.24.92,3.66,3.66,0,0,0-.84,2.56,3.71,3.71,0,0,0,.84,2.58,2.93,2.93,0,0,0,2.24.91,2.77,2.77,0,0,0,1.33-.31,2.61,2.61,0,0,0,.94-.89l1.8,1a4.05,4.05,0,0,1-1.66,1.56,5.45,5.45,0,0,1-2.54.56A6.82,6.82,0,0,1,49.58,20.73Z"></path><path class="cls-2" d="M63.05,20.73a4.3,4.3,0,0,1-1.68-.85,3.92,3.92,0,0,1-1.17-1.86,6.54,6.54,0,0,1-.43-2.49,6.41,6.41,0,0,1,.43-2.48,3.83,3.83,0,0,1,1.17-1.85,4.41,4.41,0,0,1,1.68-.84,7.4,7.4,0,0,1,4.06,0,4.41,4.41,0,0,1,1.68.84A3.83,3.83,0,0,1,69.94,13a6.41,6.41,0,0,1,.43,2.48A6.54,6.54,0,0,1,69.94,18a3.92,3.92,0,0,1-1.17,1.86,4.3,4.3,0,0,1-1.68.85,7.4,7.4,0,0,1-4.06,0Zm3.44-2.26a2.71,2.71,0,0,0,1.1-.72,3.18,3.18,0,0,0,.7-1.18,5,5,0,0,0,.24-1.64,5.13,5.13,0,0,0-.24-1.66,3.27,3.27,0,0,0-.7-1.19,2.84,2.84,0,0,0-1.1-.73,4.16,4.16,0,0,0-2.82,0,2.84,2.84,0,0,0-1.1.73,3.27,3.27,0,0,0-.7,1.19A5.13,5.13,0,0,0,61.63,15.5a5,5,0,0,0,.24,1.64,3.18,3.18,0,0,0,.7,1.18,2.71,2.71,0,0,0,1.1.72,4.16,4.16,0,0,0,2.82,0Z"></path><path class="cls-2" d="M73.93,10.29h2.21l5.18,7.13V10.29h2.28V20.6H81.39L76.21,13.5V20.6H73.93Z"></path><path class="cls-2" d="M93.18,20.73a4.3,4.3,0,0,1-1.68-.85,4.11,4.11,0,0,1-1.17-1.86,6.54,6.54,0,0,1-.43-2.49,6.41,6.41,0,0,1,.43-2.48A4,4,0,0,1,91.5,11.2a4.41,4.41,0,0,1,1.68-.84,6.7,6.7,0,0,1,2-.3,5.4,5.4,0,0,1,2.54.56,4.1,4.1,0,0,1,1.66,1.55l-1.8,1a2.47,2.47,0,0,0-.94-.88,2.72,2.72,0,0,0-1.33-.32,2.91,2.91,0,0,0-2.24.92,3.66,3.66,0,0,0-.84,2.56,3.71,3.71,0,0,0,.84,2.58,2.93,2.93,0,0,0,2.24.91,2.77,2.77,0,0,0,1.33-.31,2.61,2.61,0,0,0,.94-.89l1.8,1a4.05,4.05,0,0,1-1.66,1.56,5.45,5.45,0,0,1-2.54.56A6.82,6.82,0,0,1,93.18,20.73Z"></path><path class="cls-2" d="M104.82,10.29h8.34v2.08h-6.06v2.34h5.4v2h-5.4v2.38h6.18V20.6h-8.46Z"></path><path class="cls-2" d="M116.46,10.29h4.34a7.36,7.36,0,0,1,2,.24,3.91,3.91,0,0,1,1.4.71,2.71,2.71,0,0,1,.83,1.12,3.75,3.75,0,0,1,.27,1.46,3.25,3.25,0,0,1-.53,1.88,3,3,0,0,1-1.61,1.12l2.52,4.38h-2.6l-2.19-3.95h-2v3.95h-2.28Zm2.28,4.67h1.9a2.79,2.79,0,0,0,1.76-.48,1.67,1.67,0,0,0,.61-1.38,1.64,1.64,0,0,0-.61-1.37,2.79,2.79,0,0,0-1.76-.48h-1.9Z"></path><path class="cls-2" d="M135.68,19.54a4.29,4.29,0,0,1-2,1.16,8.63,8.63,0,0,1-2.51.36,6.86,6.86,0,0,1-2-.29,4.56,4.56,0,0,1-1.68-.87,4.21,4.21,0,0,1-1.16-1.51,5.16,5.16,0,0,1-.43-2.21V10.29h2.28v5.72a3.56,3.56,0,0,0,.18,1.12,2.51,2.51,0,0,0,.59,1,3,3,0,0,0,1.07.72,4.08,4.08,0,0,0,1.63.27,3.82,3.82,0,0,0,1.57-.27,2.81,2.81,0,0,0,1-.72,2.51,2.51,0,0,0,.59-1,3.56,3.56,0,0,0,.18-1.12V10.29h2.28V16.18a5.16,5.16,0,0,1-.43,2.21A4.43,4.43,0,0,1,135.68,19.54Z"></path><path class="cls-2" d="M140.72,10.29h8.34v2.08h-6.06v2.34h5.4v2h-5.4v2.38h6.18V20.6h-8.46Z"></path><path class="cls-2" d="M152.36,10.29h4.34a7.36,7.36,0,0,1,2,.24,3.91,3.91,0,0,1,1.4.71,2.71,2.71,0,0,1,.83,1.12,3.75,3.75,0,0,1,.27,1.46,3.25,3.25,0,0,1-.53,1.88,3,3,0,0,1-1.61,1.12l2.52,4.38h-2.6l-2.19-3.95h-2v3.95h-2.28Zm2.28,4.67h1.9a2.79,2.79,0,0,0,1.76-.48,1.67,1.67,0,0,0,.61-1.38,1.64,1.64,0,0,0-.61-1.37,2.79,2.79,0,0,0-1.76-.48h-1.9Z"></path><path class="cls-2" d="M170.47,20.73a4.46,4.46,0,0,1-1.71-.85,4.21,4.21,0,0,1-1.2-1.86,6.54,6.54,0,0,1-.43-2.49,6.41,6.41,0,0,1,.43-2.48,4.15,4.15,0,0,1,1.2-1.85,4.57,4.57,0,0,1,1.71-.84,7,7,0,0,1,2-.3,7.85,7.85,0,0,1,2,.24,5.13,5.13,0,0,1,1.59.72l-.9,1.8a3.55,3.55,0,0,0-1.12-.58,4.69,4.69,0,0,0-1.42-.23,3.16,3.16,0,0,0-1.28.24,2.72,2.72,0,0,0-1,.69,3.18,3.18,0,0,0-.66,1.16,5.12,5.12,0,0,0-.23,1.6,5.18,5.18,0,0,0,.23,1.61,3.27,3.27,0,0,0,.66,1.17,2.6,2.6,0,0,0,1,.7,3.25,3.25,0,0,0,1.28.24,5.16,5.16,0,0,0,1.47-.21,3.7,3.7,0,0,0,1.17-.61l.9,1.8a5.16,5.16,0,0,1-1.63.76,8.23,8.23,0,0,1-2.09.25A7.21,7.21,0,0,1,170.47,20.73Z"></path><path class="cls-2" d="M183.33,17.22l-4.69-6.93h2.65l3.13,4.84,3.14-4.84H184Z"></path></g></g></svg>
